<?xml version="1.0" encoding="UTF-8" standalone="no"?>
<!DOCTYPE svg PUBLIC "-//W3C//DTD SVG 1.1//EN"
 "http://www.w3.org/Graphics/SVG/1.1/DTD/svg11.dtd">
<!-- Generated by graphviz version 12.2.1 (0)
 -->
<!-- Pages: 1 -->
<svg width="2009pt" height="980pt"
 viewBox="0.00 0.00 2008.50 980.00" xmlns="http://www.w3.org/2000/svg" xmlns:xlink="http://www.w3.org/1999/xlink">
<g id="graph0" class="graph" transform="scale(1 1) rotate(0) translate(4 976)">
<polygon fill="white" stroke="none" points="-4,4 -4,-976 2004.5,-976 2004.5,4 -4,4"/>
<!-- &#45;8461916756164561373 -->
<g id="node1" class="node">
<title>&#45;8461916756164561373</title>
<polygon fill="none" stroke="black" points="847.62,-972 365.88,-972 365.88,-936 847.62,-936 847.62,-972"/>
<text text-anchor="middle" x="606.75" y="-946.62" font-family="Helvetica,sans-Serif" font-size="20.00">Projection(Loc, [&#39;pickup_latitude&#39;, &#39;pickup_longitude&#39;])</text>
</g>
<!-- &#45;4101800509543815095 -->
<g id="node2" class="node">
<title>&#45;4101800509543815095</title>
<polygon fill="none" stroke="black" points="676.62,-900 536.88,-900 536.88,-864 676.62,-864 676.62,-900"/>
<text text-anchor="middle" x="606.75" y="-874.62" font-family="Helvetica,sans-Serif" font-size="20.00">Loc(Loc, And)</text>
</g>
<!-- &#45;4101800509543815095&#45;&gt;&#45;8461916756164561373 -->
<g id="edge1" class="edge">
<title>&#45;4101800509543815095&#45;&gt;&#45;8461916756164561373</title>
<path fill="none" stroke="black" d="M606.75,-900.3C606.75,-907.59 606.75,-916.27 606.75,-924.46"/>
<polygon fill="black" stroke="black" points="603.25,-924.38 606.75,-934.38 610.25,-924.38 603.25,-924.38"/>
</g>
<!-- 7627035202155512129 -->
<g id="node3" class="node">
<title>7627035202155512129</title>
<polygon fill="none" stroke="black" points="805.75,-828 573.75,-828 573.75,-792 805.75,-792 805.75,-828"/>
<text text-anchor="middle" x="689.75" y="-802.62" font-family="Helvetica,sans-Serif" font-size="20.00">And(Between, Between)</text>
</g>
<!-- 7627035202155512129&#45;&gt;&#45;4101800509543815095 -->
<g id="edge2" class="edge">
<title>7627035202155512129&#45;&gt;&#45;4101800509543815095</title>
<path fill="none" stroke="black" d="M669.23,-828.3C659.16,-836.8 646.84,-847.19 635.82,-856.49"/>
<polygon fill="black" stroke="black" points="633.86,-853.55 628.48,-862.68 638.38,-858.91 633.86,-853.55"/>
</g>
<!-- &#45;720820503709027417 -->
<g id="node4" class="node">
<title>&#45;720820503709027417</title>
<polygon fill="none" stroke="black" points="788.12,-756 591.38,-756 591.38,-720 788.12,-720 788.12,-756"/>
<text text-anchor="middle" x="689.75" y="-730.62" font-family="Helvetica,sans-Serif" font-size="20.00">Between(Projection)</text>
</g>
<!-- &#45;720820503709027417&#45;&gt;7627035202155512129 -->
<g id="edge5" class="edge">
<title>&#45;720820503709027417&#45;&gt;7627035202155512129</title>
<path fill="none" stroke="black" d="M689.75,-756.3C689.75,-763.59 689.75,-772.27 689.75,-780.46"/>
<polygon fill="black" stroke="black" points="686.25,-780.38 689.75,-790.38 693.25,-780.38 686.25,-780.38"/>
</g>
<!-- 4736711414096127075 -->
<g id="node5" class="node">
<title>4736711414096127075</title>
<polygon fill="none" stroke="black" points="827.12,-684 552.38,-684 552.38,-648 827.12,-648 827.12,-684"/>
<text text-anchor="middle" x="689.75" y="-658.62" font-family="Helvetica,sans-Serif" font-size="20.00">Projection(Loc, trip_distance)</text>
</g>
<!-- 4736711414096127075&#45;&gt;&#45;720820503709027417 -->
<g id="edge6" class="edge">
<title>4736711414096127075&#45;&gt;&#45;720820503709027417</title>
<path fill="none" stroke="black" d="M689.75,-684.3C689.75,-691.59 689.75,-700.27 689.75,-708.46"/>
<polygon fill="black" stroke="black" points="686.25,-708.38 689.75,-718.38 693.25,-708.38 686.25,-708.38"/>
</g>
<!-- &#45;6216379700408320193 -->
<g id="node6" class="node">
<title>&#45;6216379700408320193</title>
<polygon fill="none" stroke="black" points="788.12,-612 591.38,-612 591.38,-576 788.12,-576 788.12,-612"/>
<text text-anchor="middle" x="689.75" y="-586.62" font-family="Helvetica,sans-Serif" font-size="20.00">Loc(Projection, And)</text>
</g>
<!-- &#45;6216379700408320193&#45;&gt;&#45;4101800509543815095 -->
<g id="edge3" class="edge">
<title>&#45;6216379700408320193&#45;&gt;&#45;4101800509543815095</title>
<path fill="none" stroke="black" d="M591.03,-612.34C572.46,-620.18 555.28,-631.55 543.75,-648 522.75,-677.97 510.15,-701.51 564.75,-828 568.94,-837.71 575.38,-847.15 581.98,-855.31"/>
<polygon fill="black" stroke="black" points="579.21,-857.46 588.38,-862.77 584.52,-852.9 579.21,-857.46"/>
</g>
<!-- &#45;6216379700408320193&#45;&gt;4736711414096127075 -->
<g id="edge7" class="edge">
<title>&#45;6216379700408320193&#45;&gt;4736711414096127075</title>
<path fill="none" stroke="black" d="M689.75,-612.3C689.75,-619.59 689.75,-628.27 689.75,-636.46"/>
<polygon fill="black" stroke="black" points="686.25,-636.38 689.75,-646.38 693.25,-636.38 686.25,-636.38"/>
</g>
<!-- &#45;6163932760496167402 -->
<g id="node27" class="node">
<title>&#45;6163932760496167402</title>
<polygon fill="none" stroke="black" points="1118.75,-684 844.75,-684 844.75,-648 1118.75,-648 1118.75,-684"/>
<text text-anchor="middle" x="981.75" y="-658.62" font-family="Helvetica,sans-Serif" font-size="20.00">Projection(Loc, fare_amount)</text>
</g>
<!-- &#45;6216379700408320193&#45;&gt;&#45;6163932760496167402 -->
<g id="edge32" class="edge">
<title>&#45;6216379700408320193&#45;&gt;&#45;6163932760496167402</title>
<path fill="none" stroke="black" d="M762.68,-612.48C803.78,-622.34 855.29,-634.69 898.04,-644.93"/>
<polygon fill="black" stroke="black" points="896.98,-648.28 907.52,-647.2 898.61,-641.47 896.98,-648.28"/>
</g>
<!-- &#45;8515563230732190702 -->
<g id="node7" class="node">
<title>&#45;8515563230732190702</title>
<polygon fill="none" stroke="black" points="723.75,-540 533.75,-540 533.75,-504 723.75,-504 723.75,-540"/>
<text text-anchor="middle" x="628.75" y="-514.62" font-family="Helvetica,sans-Serif" font-size="20.00">And(And, Between)</text>
</g>
<!-- &#45;8515563230732190702&#45;&gt;&#45;6216379700408320193 -->
<g id="edge8" class="edge">
<title>&#45;8515563230732190702&#45;&gt;&#45;6216379700408320193</title>
<path fill="none" stroke="black" d="M643.83,-540.3C650.92,-548.44 659.52,-558.31 667.35,-567.3"/>
<polygon fill="black" stroke="black" points="664.64,-569.51 673.85,-574.75 669.92,-564.92 664.64,-569.51"/>
</g>
<!-- 2952097610448922761 -->
<g id="node8" class="node">
<title>2952097610448922761</title>
<polygon fill="none" stroke="black" points="479.12,-468 282.38,-468 282.38,-432 479.12,-432 479.12,-468"/>
<text text-anchor="middle" x="380.75" y="-442.62" font-family="Helvetica,sans-Serif" font-size="20.00">Between(Projection)</text>
</g>
<!-- 2952097610448922761&#45;&gt;&#45;8515563230732190702 -->
<g id="edge10" class="edge">
<title>2952097610448922761&#45;&gt;&#45;8515563230732190702</title>
<path fill="none" stroke="black" d="M442.69,-468.48C477.15,-478.21 520.21,-490.36 556.23,-500.53"/>
<polygon fill="black" stroke="black" points="555.14,-503.86 565.71,-503.21 557.04,-497.12 555.14,-503.86"/>
</g>
<!-- &#45;4522424336283851624 -->
<g id="node9" class="node">
<title>&#45;4522424336283851624</title>
<polygon fill="none" stroke="black" points="347.5,-252 0,-252 0,-216 347.5,-216 347.5,-252"/>
<text text-anchor="middle" x="173.75" y="-226.62" font-family="Helvetica,sans-Serif" font-size="20.00">Projection(Concat, dropoff_longitude)</text>
</g>
<!-- &#45;4522424336283851624&#45;&gt;2952097610448922761 -->
<g id="edge12" class="edge">
<title>&#45;4522424336283851624&#45;&gt;2952097610448922761</title>
<path fill="none" stroke="black" d="M190.34,-252.15C226.68,-289.72 313.45,-379.42 356.16,-423.57"/>
<polygon fill="black" stroke="black" points="353.56,-425.93 363.03,-430.68 358.59,-421.06 353.56,-425.93"/>
</g>
<!-- 1047404627433382882 -->
<g id="node10" class="node">
<title>1047404627433382882</title>
<polygon fill="none" stroke="black" points="1251.12,-180 520.38,-180 520.38,-144 1251.12,-144 1251.12,-180"/>
<text text-anchor="middle" x="885.75" y="-154.62" font-family="Helvetica,sans-Serif" font-size="20.00">Concat(ArrowStringConversion, ArrowStringConversion, ArrowStringConversion)</text>
</g>
<!-- 1047404627433382882&#45;&gt;&#45;4522424336283851624 -->
<g id="edge13" class="edge">
<title>1047404627433382882&#45;&gt;&#45;4522424336283851624</title>
<path fill="none" stroke="black" d="M707.92,-180.48C601.6,-190.94 466.72,-204.2 359.1,-214.78"/>
<polygon fill="black" stroke="black" points="358.89,-211.28 349.28,-215.74 359.58,-218.25 358.89,-211.28"/>
</g>
<!-- &#45;2722654532471975348 -->
<g id="node19" class="node">
<title>&#45;2722654532471975348</title>
<polygon fill="none" stroke="black" points="695.88,-252 365.62,-252 365.62,-216 695.88,-216 695.88,-252"/>
<text text-anchor="middle" x="530.75" y="-226.62" font-family="Helvetica,sans-Serif" font-size="20.00">Projection(Concat, dropoff_latitude)</text>
</g>
<!-- 1047404627433382882&#45;&gt;&#45;2722654532471975348 -->
<g id="edge23" class="edge">
<title>1047404627433382882&#45;&gt;&#45;2722654532471975348</title>
<path fill="none" stroke="black" d="M797.08,-180.48C746.37,-190.48 682.62,-203.05 630.21,-213.39"/>
<polygon fill="black" stroke="black" points="629.83,-209.9 620.69,-215.26 631.18,-216.76 629.83,-209.9"/>
</g>
<!-- &#45;6539697905586472694 -->
<g id="node22" class="node">
<title>&#45;6539697905586472694</title>
<polygon fill="none" stroke="black" points="1057.25,-252 714.25,-252 714.25,-216 1057.25,-216 1057.25,-252"/>
<text text-anchor="middle" x="885.75" y="-226.62" font-family="Helvetica,sans-Serif" font-size="20.00">Projection(Concat, pickup_longitude)</text>
</g>
<!-- 1047404627433382882&#45;&gt;&#45;6539697905586472694 -->
<g id="edge27" class="edge">
<title>1047404627433382882&#45;&gt;&#45;6539697905586472694</title>
<path fill="none" stroke="black" d="M885.75,-180.3C885.75,-187.59 885.75,-196.27 885.75,-204.46"/>
<polygon fill="black" stroke="black" points="882.25,-204.38 885.75,-214.38 889.25,-204.38 882.25,-204.38"/>
</g>
<!-- &#45;4920818995401094555 -->
<g id="node24" class="node">
<title>&#45;4920818995401094555</title>
<polygon fill="none" stroke="black" points="1400.62,-252 1074.88,-252 1074.88,-216 1400.62,-216 1400.62,-252"/>
<text text-anchor="middle" x="1237.75" y="-226.62" font-family="Helvetica,sans-Serif" font-size="20.00">Projection(Concat, pickup_latitude)</text>
</g>
<!-- 1047404627433382882&#45;&gt;&#45;4920818995401094555 -->
<g id="edge29" class="edge">
<title>1047404627433382882&#45;&gt;&#45;4920818995401094555</title>
<path fill="none" stroke="black" d="M973.67,-180.48C1023.85,-190.46 1086.89,-203 1138.8,-213.32"/>
<polygon fill="black" stroke="black" points="1138.06,-216.74 1148.56,-215.26 1139.43,-209.88 1138.06,-216.74"/>
</g>
<!-- 1157837430088988191 -->
<g id="node25" class="node">
<title>1157837430088988191</title>
<polygon fill="none" stroke="black" points="2000.5,-396 897,-396 897,-360 2000.5,-360 2000.5,-396"/>
<text text-anchor="middle" x="1448.75" y="-370.62" font-family="Helvetica,sans-Serif" font-size="20.00">Projection(Concat, [&#39;trip_distance&#39;, &#39;pickup_longitude&#39;, &#39;pickup_latitude&#39;, &#39;dropoff_longitude&#39;, &#39;dropoff_latitude&#39;, &#39;fare_amount&#39;])</text>
</g>
<!-- 1047404627433382882&#45;&gt;1157837430088988191 -->
<g id="edge30" class="edge">
<title>1047404627433382882&#45;&gt;1157837430088988191</title>
<path fill="none" stroke="black" d="M1203.43,-180.5C1303.07,-188.84 1391.94,-200.47 1409.75,-216 1447.54,-248.94 1451.95,-311.66 1450.91,-348.34"/>
<polygon fill="black" stroke="black" points="1447.42,-348.03 1450.47,-358.18 1454.42,-348.35 1447.42,-348.03"/>
</g>
<!-- &#45;2876101288855384541 -->
<g id="node11" class="node">
<title>&#45;2876101288855384541</title>
<polygon fill="none" stroke="black" points="656.62,-108 234.87,-108 234.87,-72 656.62,-72 656.62,-108"/>
<text text-anchor="middle" x="445.75" y="-82.62" font-family="Helvetica,sans-Serif" font-size="20.00">ArrowStringConversion(FromMapProjectable)</text>
</g>
<!-- &#45;2876101288855384541&#45;&gt;1047404627433382882 -->
<g id="edge15" class="edge">
<title>&#45;2876101288855384541&#45;&gt;1047404627433382882</title>
<path fill="none" stroke="black" d="M555.65,-108.48C619.29,-118.61 699.5,-131.37 764.91,-141.78"/>
<polygon fill="black" stroke="black" points="764.19,-145.21 774.62,-143.32 765.29,-138.29 764.19,-145.21"/>
</g>
<!-- &#45;799920635555476428 -->
<g id="node12" class="node">
<title>&#45;799920635555476428</title>
<polygon fill="none" stroke="black" points="546.75,-36 344.75,-36 344.75,0 546.75,0 546.75,-36"/>
<text text-anchor="middle" x="445.75" y="-10.62" font-family="Helvetica,sans-Serif" font-size="20.00">FromMapProjectable</text>
</g>
<!-- &#45;799920635555476428&#45;&gt;&#45;2876101288855384541 -->
<g id="edge17" class="edge">
<title>&#45;799920635555476428&#45;&gt;&#45;2876101288855384541</title>
<path fill="none" stroke="black" d="M445.75,-36.3C445.75,-43.59 445.75,-52.27 445.75,-60.46"/>
<polygon fill="black" stroke="black" points="442.25,-60.38 445.75,-70.38 449.25,-60.38 442.25,-60.38"/>
</g>
<!-- 4342709614614152540 -->
<g id="node13" class="node">
<title>4342709614614152540</title>
<polygon fill="none" stroke="black" points="1096.62,-108 674.88,-108 674.88,-72 1096.62,-72 1096.62,-108"/>
<text text-anchor="middle" x="885.75" y="-82.62" font-family="Helvetica,sans-Serif" font-size="20.00">ArrowStringConversion(FromMapProjectable)</text>
</g>
<!-- 4342709614614152540&#45;&gt;1047404627433382882 -->
<g id="edge16" class="edge">
<title>4342709614614152540&#45;&gt;1047404627433382882</title>
<path fill="none" stroke="black" d="M885.75,-108.3C885.75,-115.59 885.75,-124.27 885.75,-132.46"/>
<polygon fill="black" stroke="black" points="882.25,-132.38 885.75,-142.38 889.25,-132.38 882.25,-132.38"/>
</g>
<!-- 2977678820544742202 -->
<g id="node14" class="node">
<title>2977678820544742202</title>
<polygon fill="none" stroke="black" points="986.75,-36 784.75,-36 784.75,0 986.75,0 986.75,-36"/>
<text text-anchor="middle" x="885.75" y="-10.62" font-family="Helvetica,sans-Serif" font-size="20.00">FromMapProjectable</text>
</g>
<!-- 2977678820544742202&#45;&gt;4342709614614152540 -->
<g id="edge18" class="edge">
<title>2977678820544742202&#45;&gt;4342709614614152540</title>
<path fill="none" stroke="black" d="M885.75,-36.3C885.75,-43.59 885.75,-52.27 885.75,-60.46"/>
<polygon fill="black" stroke="black" points="882.25,-60.38 885.75,-70.38 889.25,-60.38 882.25,-60.38"/>
</g>
<!-- 4508709006640847978 -->
<g id="node15" class="node">
<title>4508709006640847978</title>
<polygon fill="none" stroke="black" points="1536.62,-108 1114.88,-108 1114.88,-72 1536.62,-72 1536.62,-108"/>
<text text-anchor="middle" x="1325.75" y="-82.62" font-family="Helvetica,sans-Serif" font-size="20.00">ArrowStringConversion(FromMapProjectable)</text>
</g>
<!-- 4508709006640847978&#45;&gt;1047404627433382882 -->
<g id="edge14" class="edge">
<title>4508709006640847978&#45;&gt;1047404627433382882</title>
<path fill="none" stroke="black" d="M1215.85,-108.48C1152.21,-118.61 1072,-131.37 1006.59,-141.78"/>
<polygon fill="black" stroke="black" points="1006.21,-138.29 996.88,-143.32 1007.31,-145.21 1006.21,-138.29"/>
</g>
<!-- 4188079447792586032 -->
<g id="node16" class="node">
<title>4188079447792586032</title>
<polygon fill="none" stroke="black" points="1426.75,-36 1224.75,-36 1224.75,0 1426.75,0 1426.75,-36"/>
<text text-anchor="middle" x="1325.75" y="-10.62" font-family="Helvetica,sans-Serif" font-size="20.00">FromMapProjectable</text>
</g>
<!-- 4188079447792586032&#45;&gt;4508709006640847978 -->
<g id="edge19" class="edge">
<title>4188079447792586032&#45;&gt;4508709006640847978</title>
<path fill="none" stroke="black" d="M1325.75,-36.3C1325.75,-43.59 1325.75,-52.27 1325.75,-60.46"/>
<polygon fill="black" stroke="black" points="1322.25,-60.38 1325.75,-70.38 1329.25,-60.38 1322.25,-60.38"/>
</g>
<!-- 9043829732369244051 -->
<g id="node17" class="node">
<title>9043829732369244051</title>
<polygon fill="none" stroke="black" points="723.75,-468 533.75,-468 533.75,-432 723.75,-432 723.75,-468"/>
<text text-anchor="middle" x="628.75" y="-442.62" font-family="Helvetica,sans-Serif" font-size="20.00">And(And, Between)</text>
</g>
<!-- 9043829732369244051&#45;&gt;&#45;8515563230732190702 -->
<g id="edge11" class="edge">
<title>9043829732369244051&#45;&gt;&#45;8515563230732190702</title>
<path fill="none" stroke="black" d="M628.75,-468.3C628.75,-475.59 628.75,-484.27 628.75,-492.46"/>
<polygon fill="black" stroke="black" points="625.25,-492.38 628.75,-502.38 632.25,-492.38 625.25,-492.38"/>
</g>
<!-- &#45;8117759402211615834 -->
<g id="node18" class="node">
<title>&#45;8117759402211615834</title>
<polygon fill="none" stroke="black" points="629.12,-396 432.38,-396 432.38,-360 629.12,-360 629.12,-396"/>
<text text-anchor="middle" x="530.75" y="-370.62" font-family="Helvetica,sans-Serif" font-size="20.00">Between(Projection)</text>
</g>
<!-- &#45;8117759402211615834&#45;&gt;9043829732369244051 -->
<g id="edge21" class="edge">
<title>&#45;8117759402211615834&#45;&gt;9043829732369244051</title>
<path fill="none" stroke="black" d="M555.23,-396.48C567.36,-405.15 582.2,-415.75 595.36,-425.15"/>
<polygon fill="black" stroke="black" points="593.18,-427.9 603.35,-430.86 597.25,-422.2 593.18,-427.9"/>
</g>
<!-- &#45;2722654532471975348&#45;&gt;&#45;8117759402211615834 -->
<g id="edge22" class="edge">
<title>&#45;2722654532471975348&#45;&gt;&#45;8117759402211615834</title>
<path fill="none" stroke="black" d="M530.75,-252.41C530.75,-276.39 530.75,-319.86 530.75,-348.58"/>
<polygon fill="black" stroke="black" points="527.25,-348.38 530.75,-358.38 534.25,-348.38 527.25,-348.38"/>
</g>
<!-- 8344720158870062747 -->
<g id="node20" class="node">
<title>8344720158870062747</title>
<polygon fill="none" stroke="black" points="878.75,-396 646.75,-396 646.75,-360 878.75,-360 878.75,-396"/>
<text text-anchor="middle" x="762.75" y="-370.62" font-family="Helvetica,sans-Serif" font-size="20.00">And(Between, Between)</text>
</g>
<!-- 8344720158870062747&#45;&gt;9043829732369244051 -->
<g id="edge20" class="edge">
<title>8344720158870062747&#45;&gt;9043829732369244051</title>
<path fill="none" stroke="black" d="M729.28,-396.48C711.88,-405.57 690.42,-416.78 671.8,-426.51"/>
<polygon fill="black" stroke="black" points="670.38,-423.31 663.13,-431.04 673.62,-429.51 670.38,-423.31"/>
</g>
<!-- 4767100731000560316 -->
<g id="node21" class="node">
<title>4767100731000560316</title>
<polygon fill="none" stroke="black" points="922.12,-324 725.38,-324 725.38,-288 922.12,-288 922.12,-324"/>
<text text-anchor="middle" x="823.75" y="-298.62" font-family="Helvetica,sans-Serif" font-size="20.00">Between(Projection)</text>
</g>
<!-- 4767100731000560316&#45;&gt;8344720158870062747 -->
<g id="edge25" class="edge">
<title>4767100731000560316&#45;&gt;8344720158870062747</title>
<path fill="none" stroke="black" d="M808.67,-324.3C801.58,-332.44 792.98,-342.31 785.15,-351.3"/>
<polygon fill="black" stroke="black" points="782.58,-348.92 778.65,-358.75 787.86,-353.51 782.58,-348.92"/>
</g>
<!-- &#45;6539697905586472694&#45;&gt;4767100731000560316 -->
<g id="edge26" class="edge">
<title>&#45;6539697905586472694&#45;&gt;4767100731000560316</title>
<path fill="none" stroke="black" d="M870.42,-252.3C863.22,-260.44 854.47,-270.31 846.51,-279.3"/>
<polygon fill="black" stroke="black" points="843.91,-276.96 839.9,-286.76 849.15,-281.6 843.91,-276.96"/>
</g>
<!-- &#45;7071071604590950032 -->
<g id="node23" class="node">
<title>&#45;7071071604590950032</title>
<polygon fill="none" stroke="black" points="1206.12,-324 1009.38,-324 1009.38,-288 1206.12,-288 1206.12,-324"/>
<text text-anchor="middle" x="1107.75" y="-298.62" font-family="Helvetica,sans-Serif" font-size="20.00">Between(Projection)</text>
</g>
<!-- &#45;7071071604590950032&#45;&gt;8344720158870062747 -->
<g id="edge24" class="edge">
<title>&#45;7071071604590950032&#45;&gt;8344720158870062747</title>
<path fill="none" stroke="black" d="M1021.58,-324.48C972.4,-334.46 910.61,-347 859.73,-357.32"/>
<polygon fill="black" stroke="black" points="859.3,-353.84 850.2,-359.26 860.7,-360.7 859.3,-353.84"/>
</g>
<!-- &#45;4920818995401094555&#45;&gt;&#45;7071071604590950032 -->
<g id="edge28" class="edge">
<title>&#45;4920818995401094555&#45;&gt;&#45;7071071604590950032</title>
<path fill="none" stroke="black" d="M1205.28,-252.48C1188.48,-261.53 1167.77,-272.68 1149.77,-282.38"/>
<polygon fill="black" stroke="black" points="1148.28,-279.2 1141.14,-287.02 1151.6,-285.36 1148.28,-279.2"/>
</g>
<!-- 1157837430088988191&#45;&gt;&#45;6216379700408320193 -->
<g id="edge9" class="edge">
<title>1157837430088988191&#45;&gt;&#45;6216379700408320193</title>
<path fill="none" stroke="black" d="M1386.96,-396.42C1247.98,-435.61 911.33,-530.53 762.54,-572.48"/>
<polygon fill="black" stroke="black" points="761.86,-569.03 753.18,-575.12 763.76,-575.77 761.86,-569.03"/>
</g>
<!-- 3231480584288642805 -->
<g id="node26" class="node">
<title>3231480584288642805</title>
<polygon fill="none" stroke="black" points="1041.12,-756 844.38,-756 844.38,-720 1041.12,-720 1041.12,-756"/>
<text text-anchor="middle" x="942.75" y="-730.62" font-family="Helvetica,sans-Serif" font-size="20.00">Between(Projection)</text>
</g>
<!-- 3231480584288642805&#45;&gt;7627035202155512129 -->
<g id="edge4" class="edge">
<title>3231480584288642805&#45;&gt;7627035202155512129</title>
<path fill="none" stroke="black" d="M879.56,-756.48C844.26,-766.25 800.1,-778.47 763.25,-788.66"/>
<polygon fill="black" stroke="black" points="762.74,-785.17 754.03,-791.21 764.6,-791.92 762.74,-785.17"/>
</g>
<!-- &#45;6163932760496167402&#45;&gt;3231480584288642805 -->
<g id="edge31" class="edge">
<title>&#45;6163932760496167402&#45;&gt;3231480584288642805</title>
<path fill="none" stroke="black" d="M972.11,-684.3C967.81,-692.02 962.65,-701.29 957.86,-709.89"/>
<polygon fill="black" stroke="black" points="954.83,-708.13 953.02,-718.57 960.94,-711.54 954.83,-708.13"/>
</g>
</g>
</svg>
