<?xml version="1.0" encoding="UTF-8" standalone="no"?>
<!DOCTYPE svg PUBLIC "-//W3C//DTD SVG 1.1//EN"
 "http://www.w3.org/Graphics/SVG/1.1/DTD/svg11.dtd">
<!-- Generated by graphviz version 2.43.0 (0)
 -->
<!-- Title: %3 Pages: 1 -->
<svg width="2241pt" height="980pt"
 viewBox="0.00 0.00 2240.50 980.00" xmlns="http://www.w3.org/2000/svg" xmlns:xlink="http://www.w3.org/1999/xlink">
<g id="graph0" class="graph" transform="scale(1 1) rotate(0) translate(4 976)">
<title>%3</title>
<polygon fill="white" stroke="transparent" points="-4,4 -4,-976 2236.5,-976 2236.5,4 -4,4"/>
<!-- 3719781089502921209 -->
<g id="node1" class="node">
<title>3719781089502921209</title>
<polygon fill="none" stroke="black" points="939,-972 397,-972 397,-936 939,-936 939,-972"/>
<text text-anchor="middle" x="668" y="-949" font-family="Helvetica,sans-Serif" font-size="20.00">Projection(Loc, [&#39;pickup_latitude&#39;, &#39;pickup_longitude&#39;])</text>
</g>
<!-- &#45;6762169759767061585 -->
<g id="node2" class="node">
<title>&#45;6762169759767061585</title>
<polygon fill="none" stroke="black" points="743,-900 593,-900 593,-864 743,-864 743,-900"/>
<text text-anchor="middle" x="668" y="-877" font-family="Helvetica,sans-Serif" font-size="20.00">Loc(Loc, And)</text>
</g>
<!-- &#45;6762169759767061585&#45;&gt;3719781089502921209 -->
<g id="edge1" class="edge">
<title>&#45;6762169759767061585&#45;&gt;3719781089502921209</title>
<path fill="none" stroke="black" d="M668,-900.3C668,-908.02 668,-917.29 668,-925.89"/>
<polygon fill="black" stroke="black" points="664.5,-925.9 668,-935.9 671.5,-925.9 664.5,-925.9"/>
</g>
<!-- 5355069193766568686 -->
<g id="node3" class="node">
<title>5355069193766568686</title>
<polygon fill="none" stroke="black" points="885.5,-828 630.5,-828 630.5,-792 885.5,-792 885.5,-828"/>
<text text-anchor="middle" x="758" y="-805" font-family="Helvetica,sans-Serif" font-size="20.00">And(Between, Between)</text>
</g>
<!-- 5355069193766568686&#45;&gt;&#45;6762169759767061585 -->
<g id="edge3" class="edge">
<title>5355069193766568686&#45;&gt;&#45;6762169759767061585</title>
<path fill="none" stroke="black" d="M735.75,-828.3C724.42,-837.12 710.47,-847.97 698.18,-857.53"/>
<polygon fill="black" stroke="black" points="695.74,-854.99 689.99,-863.9 700.03,-860.52 695.74,-854.99"/>
</g>
<!-- &#45;3205748323775832965 -->
<g id="node4" class="node">
<title>&#45;3205748323775832965</title>
<polygon fill="none" stroke="black" points="865.5,-756 650.5,-756 650.5,-720 865.5,-720 865.5,-756"/>
<text text-anchor="middle" x="758" y="-733" font-family="Helvetica,sans-Serif" font-size="20.00">Between(Projection)</text>
</g>
<!-- &#45;3205748323775832965&#45;&gt;5355069193766568686 -->
<g id="edge5" class="edge">
<title>&#45;3205748323775832965&#45;&gt;5355069193766568686</title>
<path fill="none" stroke="black" d="M758,-756.3C758,-764.02 758,-773.29 758,-781.89"/>
<polygon fill="black" stroke="black" points="754.5,-781.9 758,-791.9 761.5,-781.9 754.5,-781.9"/>
</g>
<!-- 5685177216408960542 -->
<g id="node5" class="node">
<title>5685177216408960542</title>
<polygon fill="none" stroke="black" points="909,-684 607,-684 607,-648 909,-648 909,-684"/>
<text text-anchor="middle" x="758" y="-661" font-family="Helvetica,sans-Serif" font-size="20.00">Projection(Loc, trip_distance)</text>
</g>
<!-- 5685177216408960542&#45;&gt;&#45;3205748323775832965 -->
<g id="edge6" class="edge">
<title>5685177216408960542&#45;&gt;&#45;3205748323775832965</title>
<path fill="none" stroke="black" d="M758,-684.3C758,-692.02 758,-701.29 758,-709.89"/>
<polygon fill="black" stroke="black" points="754.5,-709.9 758,-719.9 761.5,-709.9 754.5,-709.9"/>
</g>
<!-- &#45;2107783309036646770 -->
<g id="node6" class="node">
<title>&#45;2107783309036646770</title>
<polygon fill="none" stroke="black" points="865,-612 651,-612 651,-576 865,-576 865,-612"/>
<text text-anchor="middle" x="758" y="-589" font-family="Helvetica,sans-Serif" font-size="20.00">Loc(Projection, And)</text>
</g>
<!-- &#45;2107783309036646770&#45;&gt;&#45;6762169759767061585 -->
<g id="edge2" class="edge">
<title>&#45;2107783309036646770&#45;&gt;&#45;6762169759767061585</title>
<path fill="none" stroke="black" d="M650.83,-610.18C630.16,-618.13 610.93,-630.09 598,-648 575.47,-679.2 562.91,-705.23 621,-828 625.91,-838.38 633.5,-848.25 641.15,-856.58"/>
<polygon fill="black" stroke="black" points="638.65,-859.04 648.12,-863.79 643.68,-854.17 638.65,-859.04"/>
</g>
<!-- &#45;2107783309036646770&#45;&gt;5685177216408960542 -->
<g id="edge7" class="edge">
<title>&#45;2107783309036646770&#45;&gt;5685177216408960542</title>
<path fill="none" stroke="black" d="M758,-612.3C758,-620.02 758,-629.29 758,-637.89"/>
<polygon fill="black" stroke="black" points="754.5,-637.9 758,-647.9 761.5,-637.9 754.5,-637.9"/>
</g>
<!-- &#45;3997129500332776031 -->
<g id="node27" class="node">
<title>&#45;3997129500332776031</title>
<polygon fill="none" stroke="black" points="1226.5,-684 927.5,-684 927.5,-648 1226.5,-648 1226.5,-684"/>
<text text-anchor="middle" x="1077" y="-661" font-family="Helvetica,sans-Serif" font-size="20.00">Projection(Loc, fare_amount)</text>
</g>
<!-- &#45;2107783309036646770&#45;&gt;&#45;3997129500332776031 -->
<g id="edge32" class="edge">
<title>&#45;2107783309036646770&#45;&gt;&#45;3997129500332776031</title>
<path fill="none" stroke="black" d="M835.63,-612.03C882.13,-622.24 941.36,-635.24 989.51,-645.8"/>
<polygon fill="black" stroke="black" points="988.78,-649.23 999.3,-647.95 990.28,-642.39 988.78,-649.23"/>
</g>
<!-- &#45;7519026314853954732 -->
<g id="node7" class="node">
<title>&#45;7519026314853954732</title>
<polygon fill="none" stroke="black" points="796,-540 588,-540 588,-504 796,-504 796,-540"/>
<text text-anchor="middle" x="692" y="-517" font-family="Helvetica,sans-Serif" font-size="20.00">And(And, Between)</text>
</g>
<!-- &#45;7519026314853954732&#45;&gt;&#45;2107783309036646770 -->
<g id="edge9" class="edge">
<title>&#45;7519026314853954732&#45;&gt;&#45;2107783309036646770</title>
<path fill="none" stroke="black" d="M708.31,-540.3C716.31,-548.78 726.07,-559.14 734.82,-568.42"/>
<polygon fill="black" stroke="black" points="732.47,-571.02 741.87,-575.9 737.56,-566.22 732.47,-571.02"/>
</g>
<!-- 4256637050135022121 -->
<g id="node8" class="node">
<title>4256637050135022121</title>
<polygon fill="none" stroke="black" points="529.5,-468 314.5,-468 314.5,-432 529.5,-432 529.5,-468"/>
<text text-anchor="middle" x="422" y="-445" font-family="Helvetica,sans-Serif" font-size="20.00">Between(Projection)</text>
</g>
<!-- 4256637050135022121&#45;&gt;&#45;7519026314853954732 -->
<g id="edge11" class="edge">
<title>4256637050135022121&#45;&gt;&#45;7519026314853954732</title>
<path fill="none" stroke="black" d="M487.7,-468.03C526.5,-478.09 575.76,-490.86 616.19,-501.35"/>
<polygon fill="black" stroke="black" points="615.44,-504.77 626,-503.89 617.2,-497.99 615.44,-504.77"/>
</g>
<!-- 6530535114686465623 -->
<g id="node9" class="node">
<title>6530535114686465623</title>
<polygon fill="none" stroke="black" points="384,-252 0,-252 0,-216 384,-216 384,-252"/>
<text text-anchor="middle" x="192" y="-229" font-family="Helvetica,sans-Serif" font-size="20.00">Projection(Concat, dropoff_longitude)</text>
</g>
<!-- 6530535114686465623&#45;&gt;4256637050135022121 -->
<g id="edge12" class="edge">
<title>6530535114686465623&#45;&gt;4256637050135022121</title>
<path fill="none" stroke="black" d="M210.43,-252.15C251.23,-290.11 349.24,-381.3 396.14,-424.94"/>
<polygon fill="black" stroke="black" points="393.77,-427.52 403.48,-431.77 398.54,-422.39 393.77,-427.52"/>
</g>
<!-- &#45;7260641074868821286 -->
<g id="node10" class="node">
<title>&#45;7260641074868821286</title>
<polygon fill="none" stroke="black" points="1380.5,-180 571.5,-180 571.5,-144 1380.5,-144 1380.5,-180"/>
<text text-anchor="middle" x="976" y="-157" font-family="Helvetica,sans-Serif" font-size="20.00">Concat(ArrowStringConversion, ArrowStringConversion, ArrowStringConversion)</text>
</g>
<!-- &#45;7260641074868821286&#45;&gt;6530535114686465623 -->
<g id="edge13" class="edge">
<title>&#45;7260641074868821286&#45;&gt;6530535114686465623</title>
<path fill="none" stroke="black" d="M785.46,-180.01C666.55,-190.63 513.66,-204.28 392.85,-215.07"/>
<polygon fill="black" stroke="black" points="392.39,-211.59 382.74,-215.97 393.01,-218.57 392.39,-211.59"/>
</g>
<!-- 910157361974859175 -->
<g id="node19" class="node">
<title>910157361974859175</title>
<polygon fill="none" stroke="black" points="768,-252 402,-252 402,-216 768,-216 768,-252"/>
<text text-anchor="middle" x="585" y="-229" font-family="Helvetica,sans-Serif" font-size="20.00">Projection(Concat, dropoff_latitude)</text>
</g>
<!-- &#45;7260641074868821286&#45;&gt;910157361974859175 -->
<g id="edge23" class="edge">
<title>&#45;7260641074868821286&#45;&gt;910157361974859175</title>
<path fill="none" stroke="black" d="M880.85,-180.03C823.26,-190.34 749.73,-203.51 690.39,-214.13"/>
<polygon fill="black" stroke="black" points="689.46,-210.74 680.24,-215.95 690.7,-217.63 689.46,-210.74"/>
</g>
<!-- &#45;1972034141925235598 -->
<g id="node22" class="node">
<title>&#45;1972034141925235598</title>
<polygon fill="none" stroke="black" points="1166,-252 786,-252 786,-216 1166,-216 1166,-252"/>
<text text-anchor="middle" x="976" y="-229" font-family="Helvetica,sans-Serif" font-size="20.00">Projection(Concat, pickup_longitude)</text>
</g>
<!-- &#45;7260641074868821286&#45;&gt;&#45;1972034141925235598 -->
<g id="edge27" class="edge">
<title>&#45;7260641074868821286&#45;&gt;&#45;1972034141925235598</title>
<path fill="none" stroke="black" d="M976,-180.3C976,-188.02 976,-197.29 976,-205.89"/>
<polygon fill="black" stroke="black" points="972.5,-205.9 976,-215.9 979.5,-205.9 972.5,-205.9"/>
</g>
<!-- &#45;1396299225442193768 -->
<g id="node24" class="node">
<title>&#45;1396299225442193768</title>
<polygon fill="none" stroke="black" points="1546,-252 1184,-252 1184,-216 1546,-216 1546,-252"/>
<text text-anchor="middle" x="1365" y="-229" font-family="Helvetica,sans-Serif" font-size="20.00">Projection(Concat, pickup_latitude)</text>
</g>
<!-- &#45;7260641074868821286&#45;&gt;&#45;1396299225442193768 -->
<g id="edge29" class="edge">
<title>&#45;7260641074868821286&#45;&gt;&#45;1396299225442193768</title>
<path fill="none" stroke="black" d="M1070.66,-180.03C1127.96,-190.34 1201.11,-203.51 1260.15,-214.13"/>
<polygon fill="black" stroke="black" points="1259.79,-217.62 1270.25,-215.95 1261.03,-210.73 1259.79,-217.62"/>
</g>
<!-- &#45;6795106275232622142 -->
<g id="node25" class="node">
<title>&#45;6795106275232622142</title>
<polygon fill="none" stroke="black" points="2232.5,-396 983.5,-396 983.5,-360 2232.5,-360 2232.5,-396"/>
<text text-anchor="middle" x="1608" y="-373" font-family="Helvetica,sans-Serif" font-size="20.00">Projection(Concat, [&#39;trip_distance&#39;, &#39;pickup_longitude&#39;, &#39;pickup_latitude&#39;, &#39;dropoff_longitude&#39;, &#39;dropoff_latitude&#39;, &#39;fare_amount&#39;])</text>
</g>
<!-- &#45;7260641074868821286&#45;&gt;&#45;6795106275232622142 -->
<g id="edge30" class="edge">
<title>&#45;7260641074868821286&#45;&gt;&#45;6795106275232622142</title>
<path fill="none" stroke="black" d="M1329.83,-180.01C1438.38,-188.25 1534.81,-199.94 1555,-216 1595.77,-248.43 1605.5,-313 1607.62,-349.75"/>
<polygon fill="black" stroke="black" points="1604.12,-349.92 1608.05,-359.76 1611.12,-349.62 1604.12,-349.92"/>
</g>
<!-- 7534563251420490530 -->
<g id="node11" class="node">
<title>7534563251420490530</title>
<polygon fill="none" stroke="black" points="728,-108 268,-108 268,-72 728,-72 728,-108"/>
<text text-anchor="middle" x="498" y="-85" font-family="Helvetica,sans-Serif" font-size="20.00">ArrowStringConversion(FromMapProjectable)</text>
</g>
<!-- 7534563251420490530&#45;&gt;&#45;7260641074868821286 -->
<g id="edge14" class="edge">
<title>7534563251420490530&#45;&gt;&#45;7260641074868821286</title>
<path fill="none" stroke="black" d="M614.32,-108.03C685.45,-118.45 776.47,-131.78 849.41,-142.46"/>
<polygon fill="black" stroke="black" points="849.17,-145.96 859.57,-143.95 850.19,-139.04 849.17,-145.96"/>
</g>
<!-- 7725999346178993880 -->
<g id="node12" class="node">
<title>7725999346178993880</title>
<polygon fill="none" stroke="black" points="606.5,-36 389.5,-36 389.5,0 606.5,0 606.5,-36"/>
<text text-anchor="middle" x="498" y="-13" font-family="Helvetica,sans-Serif" font-size="20.00">FromMapProjectable</text>
</g>
<!-- 7725999346178993880&#45;&gt;7534563251420490530 -->
<g id="edge17" class="edge">
<title>7725999346178993880&#45;&gt;7534563251420490530</title>
<path fill="none" stroke="black" d="M498,-36.3C498,-44.02 498,-53.29 498,-61.89"/>
<polygon fill="black" stroke="black" points="494.5,-61.9 498,-71.9 501.5,-61.9 494.5,-61.9"/>
</g>
<!-- 6241122816872933964 -->
<g id="node13" class="node">
<title>6241122816872933964</title>
<polygon fill="none" stroke="black" points="1206,-108 746,-108 746,-72 1206,-72 1206,-108"/>
<text text-anchor="middle" x="976" y="-85" font-family="Helvetica,sans-Serif" font-size="20.00">ArrowStringConversion(FromMapProjectable)</text>
</g>
<!-- 6241122816872933964&#45;&gt;&#45;7260641074868821286 -->
<g id="edge15" class="edge">
<title>6241122816872933964&#45;&gt;&#45;7260641074868821286</title>
<path fill="none" stroke="black" d="M976,-108.3C976,-116.02 976,-125.29 976,-133.89"/>
<polygon fill="black" stroke="black" points="972.5,-133.9 976,-143.9 979.5,-133.9 972.5,-133.9"/>
</g>
<!-- 8537616093102306074 -->
<g id="node14" class="node">
<title>8537616093102306074</title>
<polygon fill="none" stroke="black" points="1084.5,-36 867.5,-36 867.5,0 1084.5,0 1084.5,-36"/>
<text text-anchor="middle" x="976" y="-13" font-family="Helvetica,sans-Serif" font-size="20.00">FromMapProjectable</text>
</g>
<!-- 8537616093102306074&#45;&gt;6241122816872933964 -->
<g id="edge18" class="edge">
<title>8537616093102306074&#45;&gt;6241122816872933964</title>
<path fill="none" stroke="black" d="M976,-36.3C976,-44.02 976,-53.29 976,-61.89"/>
<polygon fill="black" stroke="black" points="972.5,-61.9 976,-71.9 979.5,-61.9 972.5,-61.9"/>
</g>
<!-- 9115968620845577791 -->
<g id="node15" class="node">
<title>9115968620845577791</title>
<polygon fill="none" stroke="black" points="1684,-108 1224,-108 1224,-72 1684,-72 1684,-108"/>
<text text-anchor="middle" x="1454" y="-85" font-family="Helvetica,sans-Serif" font-size="20.00">ArrowStringConversion(FromMapProjectable)</text>
</g>
<!-- 9115968620845577791&#45;&gt;&#45;7260641074868821286 -->
<g id="edge16" class="edge">
<title>9115968620845577791&#45;&gt;&#45;7260641074868821286</title>
<path fill="none" stroke="black" d="M1337.68,-108.03C1266.55,-118.45 1175.53,-131.78 1102.59,-142.46"/>
<polygon fill="black" stroke="black" points="1101.81,-139.04 1092.43,-143.95 1102.83,-145.96 1101.81,-139.04"/>
</g>
<!-- &#45;1635407229160294780 -->
<g id="node16" class="node">
<title>&#45;1635407229160294780</title>
<polygon fill="none" stroke="black" points="1562.5,-36 1345.5,-36 1345.5,0 1562.5,0 1562.5,-36"/>
<text text-anchor="middle" x="1454" y="-13" font-family="Helvetica,sans-Serif" font-size="20.00">FromMapProjectable</text>
</g>
<!-- &#45;1635407229160294780&#45;&gt;9115968620845577791 -->
<g id="edge19" class="edge">
<title>&#45;1635407229160294780&#45;&gt;9115968620845577791</title>
<path fill="none" stroke="black" d="M1454,-36.3C1454,-44.02 1454,-53.29 1454,-61.89"/>
<polygon fill="black" stroke="black" points="1450.5,-61.9 1454,-71.9 1457.5,-61.9 1450.5,-61.9"/>
</g>
<!-- &#45;115284519536919736 -->
<g id="node17" class="node">
<title>&#45;115284519536919736</title>
<polygon fill="none" stroke="black" points="796,-468 588,-468 588,-432 796,-432 796,-468"/>
<text text-anchor="middle" x="692" y="-445" font-family="Helvetica,sans-Serif" font-size="20.00">And(And, Between)</text>
</g>
<!-- &#45;115284519536919736&#45;&gt;&#45;7519026314853954732 -->
<g id="edge10" class="edge">
<title>&#45;115284519536919736&#45;&gt;&#45;7519026314853954732</title>
<path fill="none" stroke="black" d="M692,-468.3C692,-476.02 692,-485.29 692,-493.89"/>
<polygon fill="black" stroke="black" points="688.5,-493.9 692,-503.9 695.5,-493.9 688.5,-493.9"/>
</g>
<!-- &#45;4370148581295560957 -->
<g id="node18" class="node">
<title>&#45;4370148581295560957</title>
<polygon fill="none" stroke="black" points="692.5,-396 477.5,-396 477.5,-360 692.5,-360 692.5,-396"/>
<text text-anchor="middle" x="585" y="-373" font-family="Helvetica,sans-Serif" font-size="20.00">Between(Projection)</text>
</g>
<!-- &#45;4370148581295560957&#45;&gt;&#45;115284519536919736 -->
<g id="edge21" class="edge">
<title>&#45;4370148581295560957&#45;&gt;&#45;115284519536919736</title>
<path fill="none" stroke="black" d="M611.18,-396.12C625.04,-405.19 642.24,-416.45 657.21,-426.24"/>
<polygon fill="black" stroke="black" points="655.44,-429.26 665.72,-431.81 659.27,-423.41 655.44,-429.26"/>
</g>
<!-- 910157361974859175&#45;&gt;&#45;4370148581295560957 -->
<g id="edge22" class="edge">
<title>910157361974859175&#45;&gt;&#45;4370148581295560957</title>
<path fill="none" stroke="black" d="M585,-252.13C585,-276.33 585,-320.79 585,-349.61"/>
<polygon fill="black" stroke="black" points="581.5,-349.81 585,-359.81 588.5,-349.81 581.5,-349.81"/>
</g>
<!-- 2534691426701588489 -->
<g id="node20" class="node">
<title>2534691426701588489</title>
<polygon fill="none" stroke="black" points="965.5,-396 710.5,-396 710.5,-360 965.5,-360 965.5,-396"/>
<text text-anchor="middle" x="838" y="-373" font-family="Helvetica,sans-Serif" font-size="20.00">And(Between, Between)</text>
</g>
<!-- 2534691426701588489&#45;&gt;&#45;115284519536919736 -->
<g id="edge20" class="edge">
<title>2534691426701588489&#45;&gt;&#45;115284519536919736</title>
<path fill="none" stroke="black" d="M802.28,-396.12C782.5,-405.61 757.73,-417.49 736.67,-427.58"/>
<polygon fill="black" stroke="black" points="735.1,-424.45 727.6,-431.93 738.13,-430.76 735.1,-424.45"/>
</g>
<!-- &#45;4004903325328003761 -->
<g id="node21" class="node">
<title>&#45;4004903325328003761</title>
<polygon fill="none" stroke="black" points="1014.5,-324 799.5,-324 799.5,-288 1014.5,-288 1014.5,-324"/>
<text text-anchor="middle" x="907" y="-301" font-family="Helvetica,sans-Serif" font-size="20.00">Between(Projection)</text>
</g>
<!-- &#45;4004903325328003761&#45;&gt;2534691426701588489 -->
<g id="edge25" class="edge">
<title>&#45;4004903325328003761&#45;&gt;2534691426701588489</title>
<path fill="none" stroke="black" d="M889.94,-324.3C881.5,-332.86 871.18,-343.34 861.96,-352.7"/>
<polygon fill="black" stroke="black" points="859.39,-350.32 854.86,-359.9 864.37,-355.23 859.39,-350.32"/>
</g>
<!-- &#45;1972034141925235598&#45;&gt;&#45;4004903325328003761 -->
<g id="edge26" class="edge">
<title>&#45;1972034141925235598&#45;&gt;&#45;4004903325328003761</title>
<path fill="none" stroke="black" d="M958.94,-252.3C950.5,-260.86 940.18,-271.34 930.96,-280.7"/>
<polygon fill="black" stroke="black" points="928.39,-278.32 923.86,-287.9 933.37,-283.23 928.39,-278.32"/>
</g>
<!-- 658774516805089022 -->
<g id="node23" class="node">
<title>658774516805089022</title>
<polygon fill="none" stroke="black" points="1325.5,-324 1110.5,-324 1110.5,-288 1325.5,-288 1325.5,-324"/>
<text text-anchor="middle" x="1218" y="-301" font-family="Helvetica,sans-Serif" font-size="20.00">Between(Projection)</text>
</g>
<!-- 658774516805089022&#45;&gt;2534691426701588489 -->
<g id="edge24" class="edge">
<title>658774516805089022&#45;&gt;2534691426701588489</title>
<path fill="none" stroke="black" d="M1125.53,-324.03C1069.56,-334.34 998.1,-347.51 940.42,-358.13"/>
<polygon fill="black" stroke="black" points="939.76,-354.7 930.56,-359.95 941.03,-361.58 939.76,-354.7"/>
</g>
<!-- &#45;1396299225442193768&#45;&gt;658774516805089022 -->
<g id="edge28" class="edge">
<title>&#45;1396299225442193768&#45;&gt;658774516805089022</title>
<path fill="none" stroke="black" d="M1329.04,-252.12C1309.12,-261.61 1284.18,-273.49 1262.98,-283.58"/>
<polygon fill="black" stroke="black" points="1261.37,-280.47 1253.84,-287.93 1264.38,-286.79 1261.37,-280.47"/>
</g>
<!-- &#45;6795106275232622142&#45;&gt;&#45;2107783309036646770 -->
<g id="edge8" class="edge">
<title>&#45;6795106275232622142&#45;&gt;&#45;2107783309036646770</title>
<path fill="none" stroke="black" d="M1540.24,-396.06C1384.31,-435.32 1000.85,-531.86 835.72,-573.43"/>
<polygon fill="black" stroke="black" points="834.48,-570.14 825.64,-575.97 836.19,-576.92 834.48,-570.14"/>
</g>
<!-- &#45;6435298720162461325 -->
<g id="node26" class="node">
<title>&#45;6435298720162461325</title>
<polygon fill="none" stroke="black" points="1141.5,-756 926.5,-756 926.5,-720 1141.5,-720 1141.5,-756"/>
<text text-anchor="middle" x="1034" y="-733" font-family="Helvetica,sans-Serif" font-size="20.00">Between(Projection)</text>
</g>
<!-- &#45;6435298720162461325&#45;&gt;5355069193766568686 -->
<g id="edge4" class="edge">
<title>&#45;6435298720162461325&#45;&gt;5355069193766568686</title>
<path fill="none" stroke="black" d="M966.84,-756.03C927.1,-766.11 876.61,-778.92 835.23,-789.41"/>
<polygon fill="black" stroke="black" points="834.3,-786.04 825.47,-791.89 836.02,-792.82 834.3,-786.04"/>
</g>
<!-- &#45;3997129500332776031&#45;&gt;&#45;6435298720162461325 -->
<g id="edge31" class="edge">
<title>&#45;3997129500332776031&#45;&gt;&#45;6435298720162461325</title>
<path fill="none" stroke="black" d="M1066.37,-684.3C1061.37,-692.44 1055.31,-702.31 1049.79,-711.3"/>
<polygon fill="black" stroke="black" points="1046.76,-709.54 1044.51,-719.9 1052.72,-713.21 1046.76,-709.54"/>
</g>
</g>
</svg>
