<?xml version="1.0" encoding="UTF-8" standalone="no"?>
<!DOCTYPE svg PUBLIC "-//W3C//DTD SVG 1.1//EN"
 "http://www.w3.org/Graphics/SVG/1.1/DTD/svg11.dtd">
<!-- Generated by graphviz version 2.43.0 (0)
 -->
<!-- Title: %3 Pages: 1 -->
<svg width="1424pt" height="332pt"
 viewBox="0.00 0.00 1424.00 332.00" xmlns="http://www.w3.org/2000/svg" xmlns:xlink="http://www.w3.org/1999/xlink">
<g id="graph0" class="graph" transform="scale(1 1) rotate(0) translate(4 328)">
<title>%3</title>
<polygon fill="white" stroke="transparent" points="-4,4 -4,-328 1420,-328 1420,4 -4,4"/>
<!-- 6838705877717628082 -->
<g id="node1" class="node">
<title>6838705877717628082</title>
<polygon fill="none" stroke="black" points="866.5,-324 549.5,-324 549.5,-288 866.5,-288 866.5,-324"/>
<text text-anchor="middle" x="708" y="-301" font-family="Helvetica,sans-Serif" font-size="20.00">Projection(Drop, trip_distance)</text>
</g>
<!-- &#45;7094077155434817937 -->
<g id="node2" class="node">
<title>&#45;7094077155434817937</title>
<polygon fill="none" stroke="black" points="782.5,-252 633.5,-252 633.5,-216 782.5,-216 782.5,-252"/>
<text text-anchor="middle" x="708" y="-229" font-family="Helvetica,sans-Serif" font-size="20.00">Drop(Concat)</text>
</g>
<!-- &#45;7094077155434817937&#45;&gt;6838705877717628082 -->
<g id="edge1" class="edge">
<title>&#45;7094077155434817937&#45;&gt;6838705877717628082</title>
<path fill="none" stroke="black" d="M708,-252.3C708,-260.02 708,-269.29 708,-277.89"/>
<polygon fill="black" stroke="black" points="704.5,-277.9 708,-287.9 711.5,-277.9 704.5,-277.9"/>
</g>
<!-- &#45;226470799211414196 -->
<g id="node3" class="node">
<title>&#45;226470799211414196</title>
<polygon fill="none" stroke="black" points="1112.5,-180 303.5,-180 303.5,-144 1112.5,-144 1112.5,-180"/>
<text text-anchor="middle" x="708" y="-157" font-family="Helvetica,sans-Serif" font-size="20.00">Concat(ArrowStringConversion, ArrowStringConversion, ArrowStringConversion)</text>
</g>
<!-- &#45;226470799211414196&#45;&gt;&#45;7094077155434817937 -->
<g id="edge2" class="edge">
<title>&#45;226470799211414196&#45;&gt;&#45;7094077155434817937</title>
<path fill="none" stroke="black" d="M708,-180.3C708,-188.02 708,-197.29 708,-205.89"/>
<polygon fill="black" stroke="black" points="704.5,-205.9 708,-215.9 711.5,-205.9 704.5,-205.9"/>
</g>
<!-- 2490380730869385932 -->
<g id="node4" class="node">
<title>2490380730869385932</title>
<polygon fill="none" stroke="black" points="460,-108 0,-108 0,-72 460,-72 460,-108"/>
<text text-anchor="middle" x="230" y="-85" font-family="Helvetica,sans-Serif" font-size="20.00">ArrowStringConversion(FromMapProjectable)</text>
</g>
<!-- 2490380730869385932&#45;&gt;&#45;226470799211414196 -->
<g id="edge4" class="edge">
<title>2490380730869385932&#45;&gt;&#45;226470799211414196</title>
<path fill="none" stroke="black" d="M346.32,-108.03C417.45,-118.45 508.47,-131.78 581.41,-142.46"/>
<polygon fill="black" stroke="black" points="581.17,-145.96 591.57,-143.95 582.19,-139.04 581.17,-145.96"/>
</g>
<!-- &#45;4667439869318925248 -->
<g id="node5" class="node">
<title>&#45;4667439869318925248</title>
<polygon fill="none" stroke="black" points="338.5,-36 121.5,-36 121.5,0 338.5,0 338.5,-36"/>
<text text-anchor="middle" x="230" y="-13" font-family="Helvetica,sans-Serif" font-size="20.00">FromMapProjectable</text>
</g>
<!-- &#45;4667439869318925248&#45;&gt;2490380730869385932 -->
<g id="edge6" class="edge">
<title>&#45;4667439869318925248&#45;&gt;2490380730869385932</title>
<path fill="none" stroke="black" d="M230,-36.3C230,-44.02 230,-53.29 230,-61.89"/>
<polygon fill="black" stroke="black" points="226.5,-61.9 230,-71.9 233.5,-61.9 226.5,-61.9"/>
</g>
<!-- 3226706563736800206 -->
<g id="node6" class="node">
<title>3226706563736800206</title>
<polygon fill="none" stroke="black" points="938,-108 478,-108 478,-72 938,-72 938,-108"/>
<text text-anchor="middle" x="708" y="-85" font-family="Helvetica,sans-Serif" font-size="20.00">ArrowStringConversion(FromMapProjectable)</text>
</g>
<!-- 3226706563736800206&#45;&gt;&#45;226470799211414196 -->
<g id="edge5" class="edge">
<title>3226706563736800206&#45;&gt;&#45;226470799211414196</title>
<path fill="none" stroke="black" d="M708,-108.3C708,-116.02 708,-125.29 708,-133.89"/>
<polygon fill="black" stroke="black" points="704.5,-133.9 708,-143.9 711.5,-133.9 704.5,-133.9"/>
</g>
<!-- &#45;7271042276687593515 -->
<g id="node7" class="node">
<title>&#45;7271042276687593515</title>
<polygon fill="none" stroke="black" points="816.5,-36 599.5,-36 599.5,0 816.5,0 816.5,-36"/>
<text text-anchor="middle" x="708" y="-13" font-family="Helvetica,sans-Serif" font-size="20.00">FromMapProjectable</text>
</g>
<!-- &#45;7271042276687593515&#45;&gt;3226706563736800206 -->
<g id="edge7" class="edge">
<title>&#45;7271042276687593515&#45;&gt;3226706563736800206</title>
<path fill="none" stroke="black" d="M708,-36.3C708,-44.02 708,-53.29 708,-61.89"/>
<polygon fill="black" stroke="black" points="704.5,-61.9 708,-71.9 711.5,-61.9 704.5,-61.9"/>
</g>
<!-- 2034503367008752258 -->
<g id="node8" class="node">
<title>2034503367008752258</title>
<polygon fill="none" stroke="black" points="1416,-108 956,-108 956,-72 1416,-72 1416,-108"/>
<text text-anchor="middle" x="1186" y="-85" font-family="Helvetica,sans-Serif" font-size="20.00">ArrowStringConversion(FromMapProjectable)</text>
</g>
<!-- 2034503367008752258&#45;&gt;&#45;226470799211414196 -->
<g id="edge3" class="edge">
<title>2034503367008752258&#45;&gt;&#45;226470799211414196</title>
<path fill="none" stroke="black" d="M1069.68,-108.03C998.55,-118.45 907.53,-131.78 834.59,-142.46"/>
<polygon fill="black" stroke="black" points="833.81,-139.04 824.43,-143.95 834.83,-145.96 833.81,-139.04"/>
</g>
<!-- &#45;2041305386773756064 -->
<g id="node9" class="node">
<title>&#45;2041305386773756064</title>
<polygon fill="none" stroke="black" points="1294.5,-36 1077.5,-36 1077.5,0 1294.5,0 1294.5,-36"/>
<text text-anchor="middle" x="1186" y="-13" font-family="Helvetica,sans-Serif" font-size="20.00">FromMapProjectable</text>
</g>
<!-- &#45;2041305386773756064&#45;&gt;2034503367008752258 -->
<g id="edge8" class="edge">
<title>&#45;2041305386773756064&#45;&gt;2034503367008752258</title>
<path fill="none" stroke="black" d="M1186,-36.3C1186,-44.02 1186,-53.29 1186,-61.89"/>
<polygon fill="black" stroke="black" points="1182.5,-61.9 1186,-71.9 1189.5,-61.9 1182.5,-61.9"/>
</g>
</g>
</svg>
